#!OML:ASF F:\VICON\USERDATA\INSTALL\Justin_Nancy\Justin_Nancy.ASF
:FULLY-SPECIFIED
:DEGREES
80
root 7.25961 17.0464 -7.19176 -0.949337 -9.40849 6.17391
lowerback 7.43603 -1.10173 -6.49818
upperback 0.484436 -1.97444 0.993444
thorax -3.41585 -0.877842 4.89172
lowerneck -16.7677 -3.82975 -9.83026
upperneck 21.7586 -4.21326 6.21543
head 10.0454 -2.06558 3.25786
rclavicle 9.98893e-015 -9.54166e-015
rhumerus -41.8631 -26.5429 -66.8467
rradius 22.4063
rwrist 18.0255
rhand -14.1846 10.4817
rfingers 7.12502
rthumb 11.9511 -19.1572
lclavicle 9.98893e-015 -9.54166e-015
lhumerus -21.7 12.6425 78.0246
lradius 36.5636
lwrist -1.75665
lhand -17.8825 29.7415
lfingers 7.12502
lthumb 8.38374 59.5551
rfemur -29.6534 -1.02265 25.3299
rtibia 28.4622
rfoot 0.625944 -2.67968
rtoes 17.658
lfemur 5.61638 1.27697 -18.722
ltibia 42.9172
lfoot 23.1084 -19.7723
ltoes -18.4934
81
root 7.1771 17.0724 -6.95849 -1.04183 -10.1391 6.07333
lowerback 8.68093 -1.16196 -6.66589
upperback -0.337329 -2.17348 1.19327
thorax -4.93962 -0.88883 5.28428
lowerneck -16.4095 -3.65576 -9.78262
upperneck 22.4394 -3.9752 5.9113
head 10.1931 -2.00321 3.18737
rclavicle -3.74212e-014 -1.43125e-014
rhumerus -42.3482 -24.3491 -67.554
rradius 23.4242
rwrist 17.0812
rhand -14.0122 9.94647
rfingers 7.12502
rthumb 12.1173 -19.6826
lclavicle -3.74212e-014 -1.43125e-014
lhumerus -23.7976 13.5378 77.4173
lradius 36.6443
lwrist -1.59289
lhand -17.4652 29.1646
lfingers 7.12502
lthumb 8.78643 58.9618
rfemur -28.8612 -0.355525 25.7092
rtibia 28.9467
rfoot -0.000305061 -2.75363
rtoes 18.378
lfemur 3.78022 0.840968 -18.402
ltibia 45.3655
lfoot 28.1998 -21.1503
ltoes -13.7552
82
root 7.09714 17.1077 -6.7219 -1.21695 -10.7188 6.0276
lowerback 8.75194 -1.27899 -6.68232
upperback -0.310862 -2.33319 1.23634
thorax -4.92712 -0.968142 5.36011
lowerneck -16.4261 -3.65689 -9.72226
upperneck 22.5804 -3.98699 5.8598
head 10.2456 -2.012 3.15902
rclavicle 9.49197e-015 7.15625e-015
rhumerus -41.6567 -23.0591 -68.6918
rradius 24.2288
rwrist 16.2818
rhand -13.9354 9.51034
rfingers 7.12502
rthumb 12.1914 -20.1144
lclavicle 9.49197e-015 7.15625e-015
lhumerus -24.6783 14.1426 77.0267
lradius 36.8042
lwrist -1.3409
lhand -17.6207 29.5328
lfingers 7.12502
lthumb 8.63635 59.3362
rfemur -27.8677 -0.0429254 26.0482
rtibia 29.2711
rfoot -0.749664 -2.45071
rtoes 18.811
lfemur 2.01494 0.187925 -18.2519
ltibia 47.7482
lfoot 32.3243 -21.3418
ltoes 24.4168
83
root 7.01954 17.1351 -6.4896 -1.37025 -11.3133 5.87941
lowerback 8.81457 -1.39401 -6.60456
upperback -0.311547 -2.47856 1.31924
thorax -4.94211 -1.04044 5.42357
lowerneck -16.4671 -3.70854 -9.69138
upperneck 22.9744 -4.04096 5.69633
head 10.3973 -2.05903 3.09277
rclavicle 7.8023e-015 8.74653e-015
rhumerus -41.0335 -21.6607 -69.7462
rradius 24.9934
rwrist 15.3845
rhand -13.969 9.67515
rfingers 7.12502
rthumb 12.159 -19.9515
lclavicle 7.8023e-015 8.74653e-015
lhumerus -25.605 14.7113 76.6552
lradius 36.7893
lwrist -1.23612
lhand -17.7879 30.0201
lfingers 7.12502
lthumb 8.47502 59.83
rfemur -26.7394 0.240938 26.486
rtibia 29.3195
rfoot -1.09297 -2.28935
rtoes 18.8797
lfemur 0.427985 -0.373076 -17.956
ltibia 50.1244
lfoot 33.3552 -22.2596
ltoes 20.2112
84
root 6.93998 17.1589 -6.26245 -1.23459 -12.1739 5.22004
lowerback 8.84284 -1.41086 -6.12301
upperback -0.49602 -2.4438 1.57713
thorax -5.16512 -1.0188 5.42634
lowerneck -15.8859 -3.76366 -9.92959
upperneck 23.1907 -4.14397 5.75606
head 10.3814 -2.13444 3.14714
rclavicle -9.93923e-015 1.51076e-014
rhumerus -40.614 -20.4027 -70.5592
rradius 25.7269
rwrist 14.6431
rhand -13.9296 9.74784
rfingers 7.12502
rthumb 12.197 -19.8765
lclavicle -9.93923e-015 1.51076e-014
lhumerus -26.5562 14.8918 76.3871
lradius 36.3924
lwrist -0.72283
lhand -18.2009 29.5606
lfingers 7.12502
lthumb 8.07641 59.3862
rfemur -25.7045 0.808065 27.4925
rtibia 29.099
rfoot -1.30018 -2.39358
rtoes 19.159
lfemur -1.25033 -0.731733 -17.0824
ltibia 52.5468
lfoot 30.4709 -21.6125
ltoes 19.5221
85
root 6.86349 17.1815 -6.0448 -0.965255 -13.3505 4.37145
lowerback 8.98312 -1.31267 -5.50113
upperback -0.678729 -2.24015 1.91236
thorax -5.47402 -0.914628 5.41557
lowerneck -14.9637 -3.82361 -10.4042
upperneck 22.719 -4.29236 6.16045
head 10.0693 -2.20792 3.35143
rclavicle 2.08227e-014 -7.15625e-015
rhumerus -40.0266 -19.4014 -71.2291
rradius 26.3836
rwrist 14.0116
rhand -13.8908 9.75927
rfingers 7.12502
rthumb 12.2344 -19.8629
lclavicle 2.08227e-014 -7.15625e-015
lhumerus -27.2648 15.0098 76.2834
lradius 35.789
lwrist -0.239007
lhand -18.9694 28.324
lfingers 7.12502
lthumb 7.33465 58.1769
rfemur -24.6955 1.69676 28.6957
rtibia 28.6869
rfoot -1.60108 -2.45015
rtoes 19.949
lfemur -3.11612 -0.791218 -16.0235
ltibia 54.9712
lfoot 26.5307 -20.7774
ltoes 14.5362
86
root 6.79302 17.2119 -5.82523 -0.715945 -14.7393 3.71325
lowerback 8.86356 -1.09835 -4.92278
upperback -0.652104 -1.87573 2.09551
thorax -5.43701 -0.751146 5.22945
lowerneck -14.6256 -3.91955 -10.6017
upperneck 22.4221 -4.47282 6.43136
head 9.92699 -2.28037 3.45497
rclavicle -1.04362e-015 5.56597e-015
rhumerus -39.2419 -18.7151 -71.8874
rradius 26.9706
rwrist 13.1716
rhand -13.9866 10.6899
rfingers 7.12502
rthumb 12.142 -18.9377
lclavicle -1.04362e-015 5.56597e-015
lhumerus -27.4819 15.2024 76.2143
lradius 35.0196
lwrist -0.27468
lhand -19.735 26.6983
lfingers 7.12502
lthumb 6.59563 56.5756
rfemur -23.5256 2.67143 29.6716
rtibia 28.124
rfoot -2.04649 -2.33181
rtoes 19.5629
lfemur -4.9402 -0.582024 -15.2263
ltibia 57.2647
lfoot 22.8028 -19.3187
ltoes -2.49987
87
root 6.72444 17.2418 -5.60275 -0.602946 -16.32 3.3465
lowerback 8.6897 -0.826567 -4.5957
upperback -0.584038 -1.467 2.15982
thorax -5.32355 -0.563162 5.05214
lowerneck -14.7649 -3.93433 -10.5058
upperneck 22.697 -4.5176 6.43112
head 10.0532 -2.29522 3.43603
rclavicle 1.37161e-014 -4.77083e-015
rhumerus -38.5629 -17.8485 -72.6873
rradius 27.747
rwrist 12.3758
rhand -14.2693 12.2317
rfingers 7.12502
rthumb 11.8694 -17.4119
lclavicle 1.37161e-014 -4.77083e-015
lhumerus -27.6775 15.3364 76.0608
lradius 34.1425
lwrist -0.569455
lhand -20.3683 25.6424
lfingers 7.12502
lthumb 5.98423 55.5379
rfemur -22.2617 3.77037 30.3162
rtibia 27.6225
rfoot -3.31356 -2.67287
rtoes 23.7552
lfemur -6.53156 -0.155839 -14.7603
ltibia 59.2783
lfoot 18.9362 -17.2127
ltoes -9.48011
88
root 6.65777 17.2677 -5.38251 -0.509145 -17.8202 3.26499
lowerback 8.67197 -0.639168 -4.61331
upperback -0.702664 -1.2168 2.20501
thorax -5.46771 -0.431048 5.08076
lowerneck -14.618 -3.84466 -10.4254
upperneck 22.8053 -4.43511 6.42385
head 10.053 -2.25667 3.43416
rclavicle 8.5378e-014 -1.59028e-014
rhumerus -38.2436 -15.8422 -73.9942
rradius 29.3377
rwrist 10.4372
rhand -15.2448 12.7352
rfingers 7.12502
rthumb 10.9287 -16.9604
lclavicle 8.5378e-014 -1.59028e-014
lhumerus -28.2382 15.6478 75.8332
lradius 33.2578
lwrist -0.866386
lhand -20.3212 26.2381
lfingers 7.12502
lthumb 6.02976 56.1323
rfemur -21.0964 4.77087 30.6223
rtibia 27.2175
rfoot -3.02873 -2.05995
rtoes 19.3522
lfemur -8.20589 0.201501 -14.6149
ltibia 60.9646
lfoot 15.4383 -14.7861
ltoes -12.4325
89
root 6.58882 17.2902 -5.15977 -0.463868 -19.2297 3.43454
lowerback 8.48638 -0.495302 -4.86226
upperback -0.740499 -1.04453 2.1802
thorax -5.42037 -0.339543 5.17035
lowerneck -14.4767 -3.80149 -10.3192
upperneck 22.7397 -4.40292 6.3669
head 9.99509 -2.24184 3.40007
rclavicle -1.13804e-014 -3.97569e-015
rhumerus -37.9587 -14.2233 -75.1575
rradius 31.0522
rwrist 8.76919
rhand -15.9093 12.6528
rfingers 7.12502
rthumb 10.2877 -17.0756
lclavicle -1.13804e-014 -3.97569e-015
lhumerus -28.8642 16.0107 75.5938
lradius 32.5582
lwrist -1.08264
lhand -20.2995 27.5377
lfingers 7.12502
lthumb 6.05072 57.4313
rfemur -20.0501 5.53828 30.6592
rtibia 26.9922
rfoot -3.7484 -1.68933
rtoes 18.7809
lfemur -9.82175 0.408914 -14.7618
ltibia 62.3162
lfoot 12.4845 -12.4255
ltoes -13.3629
